<svg width="235" height="29" viewBox="0 0 235 29" fill="none" xmlns="http://www.w3.org/2000/svg">
<path d="M29.4595 0.274902L47.3228 0.275644V5.64365L34.4781 5.64554V12.0233H44.8677L44.8609 17.381H34.4781V23.5528L47.3228 23.567V28.9132H29.4595L29.4595 0.274902Z" fill="white"/>
<path d="M84.0904 0.274658V5.6266L92.0139 5.63815V28.9107H92.0465H97.0976V5.63815V5.63239H105.075V0.274667L84.0904 0.274658Z" fill="white"/>
<path fill-rule="evenodd" clip-rule="evenodd" d="M112.104 0.274658V17.1157C112.104 23.6272 117.026 28.8646 123.138 28.8646C129.251 28.8646 134.173 23.6272 134.173 17.1157V0.274658H129.138V17.0233C129.138 20.6056 126.431 23.4895 123.068 23.4895C119.705 23.4895 116.998 20.6056 116.998 17.0233V0.274658H112.104Z" fill="white"/>
<path d="M141.148 0.274658V28.9107H146.177V19.4886H149.608L155.651 28.9396H161.569L155.608 19.3384C158.194 17.7475 161.586 15.5213 161.586 9.99707C161.586 4.53023 159.125 1.78842 154.925 0.644156C153.447 0.36248 152.664 0.313398 151.608 0.274658H141.148ZM152.589 5.68434C157.94 5.68434 158.211 14.0962 152.589 14.0962L146.172 14.102V5.6901L152.589 5.68434Z" fill="white"/>
<path d="M13.9397 28.9576C18.4885 28.9576 22.4851 25.5063 22.4851 25.5063L19.5271 21.2549C19.5271 21.2549 17.2602 23.5056 13.8927 23.5056C8.87663 23.5056 5.34726 19.2377 5.34726 14.6526C5.34726 9.78105 8.82769 5.44935 13.7049 5.44935C17.7434 5.44935 19.4801 7.85019 19.4801 7.85019L22.4851 3.49867C22.4851 3.49867 18.3056 0.136719 13.8927 0.136719C6.06654 0.136719 0.382481 7.51805 0.323289 14.2524C0.262774 21.1372 5.65276 28.9576 13.9397 28.9576Z" fill="white"/>
<path fill-rule="evenodd" clip-rule="evenodd" d="M54.3794 0.291992V28.9223H59.4197V9.53532L71.9826 28.9165L77.1529 28.9223V0.291992H72.1235V19.5775L59.4197 0.291992H54.3794Z" fill="white"/>
<path fill-rule="evenodd" clip-rule="evenodd" d="M164.55 0.395752L175.313 17.237V28.8875H180.473V17.1386L191.171 0.395752H185.248L177.881 11.9309L170.479 0.395752H164.55Z" fill="white"/>
<path d="M226.302 0.274658V5.62083H228.99L229.077 28.9107H234.107V0.274658H226.302Z" fill="white"/>
<path d="M211.907 0.288574C208.952 0.288574 206.816 1.97128 205.187 4.02974C203.676 5.93816 203.496 9.61839 203.496 9.61839H208.569L208.553 9.30952C208.553 7.23926 210.123 5.55969 212.016 5.55969C213.908 5.55969 215.441 7.24215 215.441 9.3124C215.441 10.2828 214.968 11.0408 214.547 11.8296L203.355 28.9131H220.904V23.5669H213.056L218.801 14.5142C218.801 14.5142 220.405 12.3399 220.405 9.2489C220.405 7.03309 219.48 4.68544 218.021 3.106C216.464 1.42003 214.128 0.288574 211.907 0.288574Z" fill="white"/>
</svg>
