<svg width="232" height="25" viewBox="0 0 232 25" fill="none" xmlns="http://www.w3.org/2000/svg">
<g clip-path="url(#clip0_283_1265)">
<path d="M19.1447 20.4707C17.9904 20.7004 16.836 20.8152 15.8175 20.8152C12.1508 20.8152 9.91011 19.3224 8.68788 18.0593C7.19406 16.509 6.31134 14.3846 6.31134 12.3176C6.31134 8.18366 9.5027 3.87744 14.8669 3.87744C17.2434 3.87744 20.3669 4.50901 23.015 6.576L24.3052 2.38461C21.1817 1.06404 17.7866 0.317627 14.6632 0.317627C6.17554 0.317627 0.675537 5.54251 0.675537 12.3176C0.675537 19.8392 5.97183 24.3176 14.9348 24.3176C17.9225 24.3176 21.1817 23.8009 24.3052 22.7674L24.5089 22.71V12.6047H19.0768V20.4707H19.1447Z" fill="white"/>
<path d="M55.8116 13.5806H65.9289V9.90591H55.8116V4.27912H67.6943V0.948975H50.3795V23.6858H67.6943V19.7241H55.8116V13.5806Z" fill="white"/>
<path d="M76.3862 13.5806H86.4356V9.90591H76.3862V4.27912H88.201V0.948975H70.9541V23.6858H88.201V19.7241H76.3862V13.5806Z" fill="white"/>
<path d="M219.793 13.5806H229.843V9.90591H219.793V4.27912H231.676V0.948975H214.361V23.6858H231.676V19.7241H219.793V13.5806Z" fill="white"/>
<path d="M137.701 9.73366H126.565V0.948975H120.997V23.6858H126.565V13.5806H137.701V23.6858H143.268V0.948975H137.701V9.73366Z" fill="white"/>
<path d="M106.738 14.9011L96.1455 1.06381L96.0097 0.948975H91.1208V23.6858H96.2134V9.67625L106.874 23.6858H111.763V0.948975H106.738V14.9011Z" fill="white"/>
<path d="M157.46 0.317871C149.719 0.317871 145.51 4.68151 145.51 12.3179C145.51 19.9542 149.787 24.3179 157.46 24.3179C165.133 24.3179 169.411 19.9542 169.411 12.3179C169.411 4.68151 165.133 0.317871 157.46 0.317871ZM157.46 21.3322C152.639 21.3322 151.281 17.8872 151.281 12.3179C151.281 6.74849 152.639 3.30352 157.46 3.30352C162.281 3.30352 163.639 6.74849 163.639 12.3179C163.639 17.8872 162.281 21.3322 157.46 21.3322Z" fill="white"/>
<path d="M186.589 16.222C186.589 19.6095 184.349 20.7579 182.447 20.7579C180.546 20.7579 177.626 19.667 177.626 16.222C177.626 13.1215 177.626 0.891846 177.626 0.891846H171.787V16.222C171.787 21.5043 176.88 24.2603 181.972 24.2603C184.62 24.2603 187.065 23.5713 188.83 22.2507C190.867 20.7579 191.954 18.6909 191.954 16.1646V0.949262H186.589V16.222Z" fill="white"/>
<path d="M199.966 6.05928C200.237 2.44206 206.552 2.67172 209.947 6.92053L211.237 2.72914C206.077 -1.17517 194.534 -0.658422 194.466 6.46119C194.33 13.1789 207.842 13.6956 206.552 18.1741C205.398 22.3655 198.2 20.9301 195.688 16.4516L193.04 20.9875C198.947 26.6717 213.274 25.0641 211.984 16.3942C211.034 10.3081 199.626 9.84875 199.966 6.05928Z" fill="white"/>
<path d="M47.1203 6.28898C46.7807 3.70524 44.6079 0.891846 39.4474 0.891846H28.1079V23.6861H33.54V14.0976H36.9351L42.2314 23.6861H48.003L42.0277 13.3512C45.8301 12.4325 47.4598 9.10237 47.1203 6.28898ZM37.4783 11.1694H33.54V4.27941H37.4783C40.398 4.27941 41.6882 6.05931 41.6882 7.72438C41.6882 9.5617 40.1264 11.1694 37.4783 11.1694Z" fill="white"/>
</g>
<defs>
<clipPath id="clip0_283_1265">
<rect width="231" height="24" fill="white" transform="translate(0.675537 0.317871)"/>
</clipPath>
</defs>
</svg>
