<svg width="238" height="43" viewBox="0 0 238 43" fill="none" xmlns="http://www.w3.org/2000/svg">
<g clip-path="url(#clip0_283_1254)">
<path d="M20.8004 11.5889V36.6201H15.5509V25.9573H5.34232V36.6201H0.1073V11.5889H5.34232V21.4374H15.5509V11.5889H20.8004ZM35.2592 33.3772C31.9968 33.3772 30.0358 30.283 30.0474 26.2573C30.0416 22.3202 31.9358 19.0888 35.2795 19.0888C38.6291 19.0888 40.471 22.3573 40.471 26.1802C40.471 30.323 38.5885 33.3772 35.2912 33.3772H35.2592ZM35.111 37.2401C41.4297 37.2401 45.7176 33.0201 45.7176 26.0173C45.7176 20.1374 42.0862 15.2317 35.4219 15.2317C29.0277 15.2317 24.8647 20.0202 24.8647 26.3744C24.8647 32.4573 28.6414 37.2401 35.082 37.2401H35.111ZM54.5114 15.5774V27.8287C54.5114 31.4887 55.9378 33.3658 58.4188 33.3658C60.984 33.3658 62.3843 31.5887 62.3843 27.8287V15.5774H67.3201V27.5402C67.3201 34.1115 63.9414 37.2429 58.2503 37.2429C52.7625 37.2429 49.5698 34.2544 49.5698 27.4802V15.5774H54.5114ZM72.1571 31.8915C73.8391 32.7513 75.7029 33.2103 77.5984 33.2315C79.8382 33.2315 81.0264 32.323 81.0264 30.9373C81.0264 29.6316 79.9951 28.8687 77.4037 27.9659C73.7869 26.7087 71.4192 24.7687 71.4192 21.6573C71.4192 18.0174 74.5277 15.2488 79.6407 15.2488C82.1187 15.2488 83.9083 15.7317 85.1895 16.3203L84.1029 20.2202C82.6888 19.5491 81.1382 19.2024 79.568 19.2059C77.4473 19.2059 76.4305 20.1688 76.4305 21.2459C76.4305 22.5859 77.6274 23.183 80.4367 24.223C84.2772 25.6402 86.0552 27.6059 86.0552 30.6116C86.0552 34.1744 83.2808 37.2286 77.2962 37.2286C74.8356 37.2286 72.375 36.5801 71.1635 35.9086L72.1571 31.8915ZM103.393 27.8859H95.4242V32.9258H104.334V36.8915H90.4884V15.5774H103.869V19.5574H95.4242V23.9659H103.393V27.8859ZM114.185 15.5774V23.7916H122.224V15.5774H127.151V36.8915H122.224V28.0059H114.185V36.8915H109.25V15.5774H114.185ZM141.453 33.3772C138.176 33.3772 136.215 30.283 136.227 26.2573C136.221 22.3202 138.115 19.0888 141.473 19.0888C144.82 19.0888 146.662 22.3573 146.662 26.1802C146.662 30.323 144.776 33.3772 141.488 33.3772H141.453ZM141.305 37.2401C147.615 37.2401 151.908 33.0201 151.908 26.0173C151.908 20.1374 148.277 15.2317 141.613 15.2317C135.218 15.2317 131.047 20.0202 131.047 26.3744C131.047 32.4573 134.823 37.2401 141.276 37.2401H141.305ZM155.795 15.5774H160.728V32.8344H169.339V36.8915H155.795V15.5774ZM177.819 19.3317C178.243 19.2374 178.958 19.1488 180.027 19.1488C184.205 19.1488 186.845 21.3145 186.837 25.8887C186.837 30.9715 183.92 33.3572 179.513 33.3258C178.917 33.3258 178.243 33.3201 177.822 33.2458L177.819 19.3317ZM172.886 36.8058C174.089 36.9629 175.908 37.1115 178.458 37.1115C182.682 37.1115 186.177 36.2315 188.466 34.3658C190.549 32.643 192.054 29.8087 192.054 25.7259C192.054 21.9545 190.639 19.2688 188.382 17.6174C186.296 16.0803 183.621 15.4117 179.507 15.4117C177.041 15.4117 174.687 15.586 172.883 15.8717L172.886 36.8058Z" fill="white"/>
<path d="M216.472 6.61338C215.476 5.63339 214.337 5.26196 212.914 5.26196C211.092 5.26196 209.709 5.5791 208.724 6.12196C207.13 7.00481 207.106 9.13622 207.106 10.8333C207.106 14.3162 208.004 17.0019 212.275 17.0019C215.932 17.0019 218.184 15.2162 218.184 11.3076C218.181 8.9505 217.594 7.74194 216.472 6.61338Z" fill="white"/>
<path d="M231.25 2.8225C229.957 1.48252 228.685 0.871094 227.128 0.871094C225.899 0.871094 224.975 1.14252 223.569 1.92537C221.791 2.90536 220.643 4.39392 220.643 6.60819C220.643 9.10531 220.702 11.9024 222.116 13.5281C223.409 15.0138 225.283 16.4224 227.816 16.4224C232.517 16.4224 233.374 9.9053 233.374 7.45389C233.374 5.43391 232.491 4.11392 231.25 2.8225Z" fill="white"/>
<path d="M216.619 18.5732C213.177 18.5732 209.365 18.8875 205.629 19.7532C201.664 20.6675 200.603 20.9132 200.603 22.6075C200.603 23.8475 201.179 25.9246 202.471 26.916C203.84 27.9503 206.199 27.8703 208.302 27.9017C211.062 27.9389 214.763 27.9389 219.911 27.7589C223.678 27.6186 227.45 27.6186 231.218 27.7589C234.573 27.9017 235.648 27.7703 236.801 26.7132C237.513 26.0503 237.679 25.1446 237.679 23.9846C237.679 20.7961 236.238 20.5018 232.871 19.7075C229.358 18.879 222.607 18.5732 216.619 18.5732Z" fill="white"/>
<path d="M213.145 29.5105C215.132 29.5105 216.457 30.1533 216.457 32.3048C216.457 33.5562 216.552 34.2362 216.552 35.519C216.552 36.8104 217.017 37.9561 217.017 39.4504C217.017 41.9532 214.795 42.5475 213.046 42.5475C209.42 42.5475 208.558 39.8076 208.558 37.4504C208.555 32.899 209.499 29.5105 213.145 29.5105Z" fill="white"/>
<path d="M220.841 37.3044C220.841 35.633 221.035 32.6816 222.2 31.2788C222.988 30.3188 224.623 29.8359 227.194 29.8359C230.236 29.8359 232.115 31.4131 232.115 36.0502C232.115 36.7959 232.005 37.6159 231.886 38.193C231.491 40.093 231.157 41.4016 229.024 41.9987C227.97 42.2987 226.892 42.3987 225.466 42.3987C223.929 42.3987 220.841 41.4444 220.841 37.3044Z" fill="white"/>
</g>
<defs>
<clipPath id="clip0_283_1254">
<rect width="237.569" height="41.383" fill="white" transform="translate(0.1073 0.859619)"/>
</clipPath>
</defs>
</svg>
