<svg width="132" height="51" viewBox="0 0 132 51" fill="none" xmlns="http://www.w3.org/2000/svg">
<g clip-path="url(#clip0_283_1280)">
<path d="M29.7068 8.86773C27.8959 6.81477 24.6745 5.92725 20.4879 5.92725H8.40924C7.56355 5.92725 6.84038 6.53088 6.71786 7.37657L1.68557 39.2228C1.60489 39.8683 2.08899 40.4301 2.69263 40.4301H10.1395L11.9922 28.5546L11.9534 28.9162C12.0729 28.0705 12.799 27.4669 13.6447 27.4669H17.1889C24.1546 27.4669 29.5903 24.6489 31.1591 16.4759C31.198 16.2339 31.2398 15.9918 31.2787 15.7498C31.8405 12.7734 31.3594 10.7205 29.7068 8.86773Z" fill="white"/>
<path d="M120.862 24.0397C120.42 27.019 118.125 27.019 115.911 27.019H114.661L115.546 21.4219C115.585 21.0992 115.908 20.8183 116.23 20.8183H116.795C118.283 20.8183 119.736 20.8183 120.459 21.664C120.901 22.2258 121.024 22.9519 120.862 24.0397ZM119.894 16.2283H111.56C110.995 16.2283 110.514 16.6317 110.433 17.1935L107.05 38.5299C106.97 38.9333 107.292 39.3338 107.735 39.3338H112.002C112.405 39.3338 112.728 39.0529 112.806 38.6495L113.771 32.6101C113.852 32.0453 114.336 31.6449 114.898 31.6449H117.515C122.99 31.6449 126.172 28.9883 126.976 23.714C127.338 21.4189 126.976 19.608 125.93 18.3589C124.768 16.9514 122.673 16.2283 119.894 16.2283Z" fill="white"/>
<path d="M61.4706 24.0397C61.0283 27.019 58.7333 27.019 56.519 27.019H55.2699L56.1544 21.4219C56.1933 21.0992 56.516 20.8183 56.8388 20.8183H57.4035C58.8917 20.8183 60.344 20.8183 61.0672 21.664C61.5095 22.2258 61.632 22.9519 61.4706 24.0397ZM60.5054 16.2283H52.171C51.6062 16.2283 51.1251 16.6317 51.0444 17.1935L47.6617 38.5299C47.581 38.9333 47.9037 39.3338 48.346 39.3338H52.3324C52.8972 39.3338 53.3783 38.9304 53.459 38.3686L54.3854 32.6101C54.466 32.0453 54.9502 31.6449 55.512 31.6449H58.1297C63.6043 31.6449 66.7868 28.9883 67.5906 23.714C67.9522 21.4189 67.5906 19.608 66.5447 18.3589C65.4152 16.9514 63.3234 16.2283 60.5054 16.2283Z" fill="white"/>
<path d="M79.8337 31.672C79.4303 33.967 77.6582 35.497 75.3244 35.497C74.156 35.497 73.2296 35.1354 72.6678 34.4092C72.0641 33.7249 71.8639 32.7179 72.0223 31.5913C72.3839 29.3381 74.2366 27.7663 76.4898 27.7663C77.6164 27.7663 78.5428 28.1278 79.1464 28.854C79.7919 29.5772 80.0339 30.5842 79.8337 31.672ZM85.389 23.9412H81.4026C81.0798 23.9412 80.7571 24.1833 80.7183 24.5449L80.5569 25.6715L80.276 25.268C79.4303 24.0189 77.4969 23.5767 75.5664 23.5767C71.1766 23.5767 67.3934 26.9176 66.6703 31.5883C66.3087 33.9221 66.8316 36.1365 68.1584 37.7083C69.3657 39.1576 71.0989 39.7224 73.1907 39.7224C76.7349 39.7224 78.7071 37.4274 78.7071 37.4274L78.5458 38.554C78.4651 38.9574 78.7878 39.3579 79.2301 39.3579H82.8131C83.3778 39.3579 83.859 38.9544 83.9396 38.3926L86.1151 24.7451C86.154 24.3028 85.8312 23.9412 85.389 23.9412Z" fill="white"/>
<path d="M139.226 31.672C138.823 33.967 137.051 35.497 134.717 35.497C133.548 35.497 132.622 35.1354 132.06 34.4092C131.457 33.7249 131.256 32.7179 131.415 31.5913C131.776 29.3381 133.629 27.7663 135.882 27.7663C137.009 27.7663 137.935 28.1278 138.539 28.854C139.143 29.5801 139.385 30.5842 139.226 31.672ZM144.781 23.9412H140.795C140.472 23.9412 140.15 24.1833 140.111 24.5449L139.949 25.6715L139.668 25.268C138.823 24.0189 136.889 23.5767 134.959 23.5767C130.569 23.5767 126.786 26.9176 126.063 31.5883C125.701 33.9221 126.224 36.1365 127.551 37.7083C128.758 39.1576 130.491 39.7224 132.583 39.7224C136.127 39.7224 138.1 37.4274 138.1 37.4274L137.938 38.554C137.858 38.9574 138.18 39.3579 138.623 39.3579H142.206C142.77 39.3579 143.251 38.9544 143.332 38.3926L145.508 24.7451C145.546 24.3028 145.224 23.9412 144.781 23.9412Z" fill="white"/>
<path d="M106.629 23.9141H102.603C102.2 23.9141 101.877 24.1143 101.638 24.4371L96.1636 32.5682L93.8298 24.7568C93.6684 24.2727 93.2261 23.9111 92.7032 23.9111H88.7586C88.2745 23.9111 87.9548 24.3952 88.1132 24.8375L92.5418 37.8007L88.3941 43.6399C88.0713 44.0821 88.3941 44.7276 88.9589 44.7276H92.9452C93.3068 44.7276 93.6714 44.5274 93.9105 44.2435L107.235 24.9989C107.513 24.5566 107.193 23.9141 106.629 23.9141Z" fill="white"/>
<path d="M29.7068 8.86773C27.8959 6.81477 24.6745 5.92725 20.4879 5.92725H8.40924C7.56355 5.92725 6.84038 6.53088 6.71786 7.37657L1.68557 39.2228C1.60489 39.8683 2.08899 40.4301 2.69263 40.4301H10.1395L11.9922 28.5546L11.9534 28.9162C12.0729 28.0705 12.799 27.4669 13.6447 27.4669H17.1889C24.1546 27.4669 29.5903 24.6489 31.1591 16.4759C31.198 16.2339 31.2398 15.9918 31.2787 15.7498C31.8405 12.7734 31.3594 10.7205 29.7068 8.86773Z" fill="white"/>
<path d="M22.0012 29.5C22.0819 28.977 29.5994 24.2002 30.0417 24C30.2419 23.9193 31.7592 17.5 32.0012 17.5V17C32.0863 17 31.1675 15.7261 31.3296 15.8346C31.8137 12.8164 31.3296 10.7605 29.6801 8.9107C27.8692 6.85774 24.6478 5.97021 20.4612 5.97021H8.38251C7.53682 5.97021 6.81365 6.57385 6.69113 7.41954L1.73953 39.224C1.65884 39.8694 2.14295 40.4313 2.74658 40.4313H10.1934L12.5012 28.5L22.0012 29.5Z" fill="white"/>
<path d="M31.3666 15.8098C31.3277 16.0519 31.2859 16.2939 31.247 16.536C29.6782 24.709 24.2006 27.5269 17.2767 27.5269H13.7326C12.8869 27.5269 12.1638 28.1306 12.0413 28.9762L10.1885 40.4513L9.66556 43.7115C9.58487 44.2763 9.98829 44.7574 10.5501 44.7574H16.8315C17.5576 44.7574 18.2001 44.2345 18.3197 43.4695L18.4003 43.1467L19.5718 35.6581L19.6524 35.2547C19.772 34.5285 20.4174 33.9667 21.1406 33.9667H22.067C28.1452 33.9667 32.8966 31.5103 34.3071 24.3444C34.8718 21.3651 34.5879 18.8698 33.0579 17.0978C32.6157 16.5748 32.012 16.1714 31.3666 15.8098Z" fill="white"/>
<path d="M29.6962 15.131C29.4541 15.0503 29.2121 15.0114 28.9312 14.9308C28.6891 14.8919 28.4082 14.8112 28.1273 14.7694C27.1621 14.608 26.1132 14.5273 25.0284 14.5273H15.5645C15.3225 14.5273 15.1222 14.5662 14.919 14.6887C14.4768 14.8889 14.154 15.2923 14.0733 15.8153L12.0592 28.5365L12.0204 28.8981C12.1399 28.0524 12.8661 27.4487 13.7118 27.4487H17.2559C24.2216 27.4487 29.6573 24.6308 31.2262 16.4578C31.265 16.2157 31.3069 15.9737 31.3457 15.7316C30.9423 15.5314 30.5 15.3282 30.0577 15.1668C29.9382 15.2117 29.8187 15.1728 29.6962 15.131Z" fill="#EDEDED"/>
</g>
<defs>
<clipPath id="clip0_283_1280">
<rect width="154" height="50" fill="white" transform="translate(0.676758 0.317627)"/>
</clipPath>
</defs>
</svg>
